<svg xmlns:xlink="http://www.w3.org/1999/xlink" width="780" height="576" viewBox="0 0 780 576" fill="none" xmlns="http://www.w3.org/2000/svg">
<circle opacity="0.7" cx="390" cy="287.999" r="144" transform="rotate(-100 390 287.999)" stroke="#99A2EE"/>
<circle cx="362.04" cy="146.708" r="2" transform="rotate(-100 362.04 146.708)" fill="#99A2EE"/>
<circle cx="508.505" cy="407.233" r="2" transform="rotate(-100 508.505 407.233)" fill="#99A2EE"/>
<circle cx="174.215" cy="296.601" r="2" transform="rotate(-100 174.215 296.601)" fill="#99A2EE"/>
<circle cx="288.84" cy="422.611" r="2" transform="rotate(-100 288.84 422.611)" fill="#99A2EE"/>
<circle opacity="0.6" cx="390.002" cy="288" r="168" transform="rotate(-100 390.002 288)" stroke="#99A2EE"/>
<circle opacity="0.5" cx="390" cy="288" r="192" transform="rotate(-100 390 288)" stroke="#99A2EE"/>
<circle opacity="0.4" cx="390" cy="287.999" r="216" transform="rotate(-100 390 287.999)" stroke="#99A2EE"/>
<circle opacity="0.3" cx="390" cy="287.999" r="240" transform="rotate(-100 390 287.999)" stroke="#99A2EE"/>
<circle opacity="0.2" cx="390" cy="288" r="264" transform="rotate(-100 390 288)" stroke="#99A2EE"/>
<circle opacity="0.1" cx="390" cy="288" r="288" transform="rotate(-100 390 288)" stroke="#99A2EE"/>
</svg>